<svg xmlns="http://www.w3.org/2000/svg" width="880" height="680" viewBox="0 0 880 680" role="img" aria-labelledby="title desc">
<title id="title">Retinal cell composition by sample</title>
<desc id="desc">Paired point estimates and descriptive cell-level Wilson intervals for sixteen marker-defined cell types. The frozen-rule depleted call, horizontal cell, is highlighted.</desc>
<rect width="100%" height="100%" fill="white"/>
<g font-family="Arial, Helvetica, sans-serif" font-size="12" fill="#222">
<text x="190" y="28" font-size="18" font-weight="bold">Retinal cell composition</text>
<circle cx="190" cy="51" r="4" fill="#0072B2"/><text x="200" y="55">Sample 1</text>
<rect x="295" y="47" width="8" height="8" fill="#D55E00"/><text x="310" y="55">Sample 2</text>
<text x="178" y="95.72" text-anchor="end" font-weight="normal">astrocyte</text><line x1="228.62" y1="91.72" x2="200.57" y2="91.72" stroke="#B0B0B0" stroke-width="1"/><line x1="224.47" y1="88.72" x2="233.24" y2="88.72" stroke="#0072B2" stroke-width="2"/><circle cx="228.62" cy="88.72" r="4" fill="#0072B2"/><line x1="198.25" y1="94.72" x2="203.52" y2="94.72" stroke="#D55E00" stroke-width="2"/><rect x="197.07" y="91.22" width="7" height="7" fill="#D55E00"/><text x="178" y="129.16" text-anchor="end" font-weight="normal">microglial cell</text><line x1="191.49" y1="125.16" x2="190.51" y2="125.16" stroke="#B0B0B0" stroke-width="1"/><line x1="190.83" y1="122.16" x2="192.67" y2="122.16" stroke="#0072B2" stroke-width="2"/><circle cx="191.49" cy="122.16" r="4" fill="#0072B2"/><line x1="190.17" y1="128.16" x2="191.50" y2="128.16" stroke="#D55E00" stroke-width="2"/><rect x="187.01" y="124.66" width="7" height="7" fill="#D55E00"/><text x="178" y="162.59" text-anchor="end" font-weight="normal">RPE cell</text><line x1="190.27" y1="158.59" x2="190.51" y2="158.59" stroke="#B0B0B0" stroke-width="1"/><line x1="190.07" y1="155.59" x2="190.99" y2="155.59" stroke="#0072B2" stroke-width="2"/><circle cx="190.27" cy="155.59" r="4" fill="#0072B2"/><line x1="190.17" y1="161.59" x2="191.50" y2="161.59" stroke="#D55E00" stroke-width="2"/><rect x="187.01" y="158.09" width="7" height="7" fill="#D55E00"/><text x="178" y="196.03" text-anchor="end" font-weight="normal">cone cell</text><line x1="220.49" y1="192.03" x2="218.47" y2="192.03" stroke="#B0B0B0" stroke-width="1"/><line x1="216.81" y1="189.03" x2="224.65" y2="189.03" stroke="#0072B2" stroke-width="2"/><circle cx="220.49" cy="189.03" r="4" fill="#0072B2"/><line x1="214.52" y1="195.03" x2="223.03" y2="195.03" stroke="#D55E00" stroke-width="2"/><rect x="214.97" y="191.53" width="7" height="7" fill="#D55E00"/><text x="178" y="229.47" text-anchor="end" font-weight="normal">rod cell</text><line x1="728.74" y1="225.47" x2="796.48" y2="225.47" stroke="#B0B0B0" stroke-width="1"/><line x1="718.51" y1="222.47" x2="738.83" y2="222.47" stroke="#0072B2" stroke-width="2"/><circle cx="728.74" cy="222.47" r="4" fill="#0072B2"/><line x1="785.63" y1="228.47" x2="807.05" y2="228.47" stroke="#D55E00" stroke-width="2"/><rect x="792.98" y="224.97" width="7" height="7" fill="#D55E00"/><rect x="0" y="242.19" width="880" height="33.44" fill="#FFF3E6"/><text x="178" y="262.91" text-anchor="end" font-weight="bold">horizontal cell</text><line x1="222.11" y1="258.91" x2="198.35" y2="258.91" stroke="#B0B0B0" stroke-width="1"/><line x1="218.34" y1="255.91" x2="226.37" y2="255.91" stroke="#0072B2" stroke-width="2"/><circle cx="222.11" cy="255.91" r="4" fill="#0072B2"/><line x1="196.32" y1="261.91" x2="201.02" y2="261.91" stroke="#D55E00" stroke-width="2"/><rect x="194.85" y="258.41" width="7" height="7" fill="#D55E00"/><text x="178" y="296.34" text-anchor="end" font-weight="normal">bipolar cell</text><line x1="314.39" y1="292.34" x2="295.68" y2="292.34" stroke="#B0B0B0" stroke-width="1"/><line x1="307.13" y1="289.34" x2="322.01" y2="289.34" stroke="#0072B2" stroke-width="2"/><circle cx="314.39" cy="289.34" r="4" fill="#0072B2"/><line x1="288.14" y1="295.34" x2="303.72" y2="295.34" stroke="#D55E00" stroke-width="2"/><rect x="292.18" y="291.84" width="7" height="7" fill="#D55E00"/><text x="178" y="329.78" text-anchor="end" font-weight="normal">RGC</text><line x1="205.72" y1="325.78" x2="208.07" y2="325.78" stroke="#B0B0B0" stroke-width="1"/><line x1="203.12" y1="322.78" x2="208.81" y2="322.78" stroke="#0072B2" stroke-width="2"/><circle cx="205.72" cy="322.78" r="4" fill="#0072B2"/><line x1="204.97" y1="328.78" x2="211.80" y2="328.78" stroke="#D55E00" stroke-width="2"/><rect x="204.57" y="325.28" width="7" height="7" fill="#D55E00"/><text x="178" y="363.22" text-anchor="end" font-weight="normal">T cells</text><line x1="190.54" y1="359.22" x2="190.00" y2="359.22" stroke="#B0B0B0" stroke-width="1"/><line x1="190.21" y1="356.22" x2="191.39" y2="356.22" stroke="#0072B2" stroke-width="2"/><circle cx="190.54" cy="356.22" r="4" fill="#0072B2"/><line x1="190.00" y1="362.22" x2="190.65" y2="362.22" stroke="#D55E00" stroke-width="2"/><rect x="186.50" y="358.72" width="7" height="7" fill="#D55E00"/><text x="178" y="396.66" text-anchor="end" font-weight="normal">macrophage</text><line x1="190.41" y1="392.66" x2="190.00" y2="392.66" stroke="#B0B0B0" stroke-width="1"/><line x1="190.14" y1="389.66" x2="191.19" y2="389.66" stroke="#0072B2" stroke-width="2"/><circle cx="190.41" cy="389.66" r="4" fill="#0072B2"/><line x1="190.00" y1="395.66" x2="190.65" y2="395.66" stroke="#D55E00" stroke-width="2"/><rect x="186.50" y="392.16" width="7" height="7" fill="#D55E00"/><text x="178" y="430.09" text-anchor="end" font-weight="normal">Schwann cell</text><line x1="190.27" y1="426.09" x2="190.34" y2="426.09" stroke="#B0B0B0" stroke-width="1"/><line x1="190.07" y1="423.09" x2="190.99" y2="423.09" stroke="#0072B2" stroke-width="2"/><circle cx="190.27" cy="423.09" r="4" fill="#0072B2"/><line x1="190.09" y1="429.09" x2="191.24" y2="429.09" stroke="#D55E00" stroke-width="2"/><rect x="186.84" y="425.59" width="7" height="7" fill="#D55E00"/><text x="178" y="463.53" text-anchor="end" font-weight="normal">Pericyte</text><line x1="190.27" y1="459.53" x2="190.17" y2="459.53" stroke="#B0B0B0" stroke-width="1"/><line x1="190.07" y1="456.53" x2="190.99" y2="456.53" stroke="#0072B2" stroke-width="2"/><circle cx="190.27" cy="456.53" r="4" fill="#0072B2"/><line x1="190.03" y1="462.53" x2="190.96" y2="462.53" stroke="#D55E00" stroke-width="2"/><rect x="186.67" y="459.03" width="7" height="7" fill="#D55E00"/><text x="178" y="496.97" text-anchor="end" font-weight="normal">B cell</text><line x1="190.00" y1="492.97" x2="190.00" y2="492.97" stroke="#B0B0B0" stroke-width="1"/><line x1="190.00" y1="489.97" x2="190.52" y2="489.97" stroke="#0072B2" stroke-width="2"/><circle cx="190.00" cy="489.97" r="4" fill="#0072B2"/><line x1="190.00" y1="495.97" x2="190.65" y2="495.97" stroke="#D55E00" stroke-width="2"/><rect x="186.50" y="492.47" width="7" height="7" fill="#D55E00"/><text x="178" y="530.41" text-anchor="end" font-weight="normal">fibroblast</text><line x1="190.00" y1="526.41" x2="190.00" y2="526.41" stroke="#B0B0B0" stroke-width="1"/><line x1="190.00" y1="523.41" x2="190.52" y2="523.41" stroke="#0072B2" stroke-width="2"/><circle cx="190.00" cy="523.41" r="4" fill="#0072B2"/><line x1="190.00" y1="529.41" x2="190.65" y2="529.41" stroke="#D55E00" stroke-width="2"/><rect x="186.50" y="525.91" width="7" height="7" fill="#D55E00"/><text x="178" y="563.84" text-anchor="end" font-weight="normal">endothelial cell</text><line x1="190.27" y1="559.84" x2="190.00" y2="559.84" stroke="#B0B0B0" stroke-width="1"/><line x1="190.07" y1="556.84" x2="190.99" y2="556.84" stroke="#0072B2" stroke-width="2"/><circle cx="190.27" cy="556.84" r="4" fill="#0072B2"/><line x1="190.00" y1="562.84" x2="190.65" y2="562.84" stroke="#D55E00" stroke-width="2"/><rect x="186.50" y="559.34" width="7" height="7" fill="#D55E00"/><text x="178" y="597.28" text-anchor="end" font-weight="normal">muller glia cell</text><line x1="259.38" y1="593.28" x2="263.81" y2="593.28" stroke="#B0B0B0" stroke-width="1"/><line x1="253.83" y1="590.28" x2="265.35" y2="590.28" stroke="#0072B2" stroke-width="2"/><circle cx="259.38" cy="590.28" r="4" fill="#0072B2"/><line x1="257.43" y1="596.28" x2="270.73" y2="596.28" stroke="#D55E00" stroke-width="2"/><rect x="260.31" y="592.78" width="7" height="7" fill="#D55E00"/>
<line x1="190" y1="610" x2="845" y2="610" stroke="#222"/>
<line x1="190.00" y1="610" x2="190.00" y2="615" stroke="#222"/><text x="190.00" y="632" text-anchor="middle">0.0%</text><line x1="321.00" y1="610" x2="321.00" y2="615" stroke="#222"/><text x="321.00" y="632" text-anchor="middle">15.4%</text><line x1="452.00" y1="610" x2="452.00" y2="615" stroke="#222"/><text x="452.00" y="632" text-anchor="middle">30.7%</text><line x1="583.00" y1="610" x2="583.00" y2="615" stroke="#222"/><text x="583.00" y="632" text-anchor="middle">46.1%</text><line x1="714.00" y1="610" x2="714.00" y2="615" stroke="#222"/><text x="714.00" y="632" text-anchor="middle">61.4%</text><line x1="845.00" y1="610" x2="845.00" y2="615" stroke="#222"/><text x="845.00" y="632" text-anchor="middle">76.8%</text>
<text x="517.50" y="662" text-anchor="middle" font-size="14">Fraction of all cells</text>
</g></svg>